<?xml version="1.0" standalone="no"?>
<!DOCTYPE svg PUBLIC "-//W3C//DTD SVG 20010904//EN"
 "http://www.w3.org/TR/2001/REC-SVG-20010904/DTD/svg10.dtd">
<svg version="1.0" xmlns="http://www.w3.org/2000/svg"
 width="2500.000000pt" height="2500.000000pt" viewBox="0 0 2500.000000 2500.000000"
 preserveAspectRatio="xMidYMid meet">
<metadata>
Created by potrace 1.14, written by Peter Selinger 2001-2017
</metadata>
<g transform="translate(0.000000,2500.000000) scale(0.100000,-0.100000)"
fill="#000000" stroke="none">
<path d="M12295 21203 c-875 -20 -1729 -174 -2487 -449 -1584 -574 -2775
-1618 -3605 -3159 -595 -1105 -952 -2452 -1067 -4025 -53 -723 -53 -1641 -1
-2360 94 -1271 334 -2356 737 -3330 78 -190 323 -683 438 -883 447 -778 989
-1423 1625 -1933 511 -410 1124 -758 1750 -994 433 -162 747 -252 1189 -339
548 -109 1034 -153 1686 -154 922 -2 1759 90 2495 274 886 221 1628 563 2254
1037 186 140 288 229 460 397 192 187 341 357 487 550 697 929 1065 2108 1101
3533 l6 252 -2121 0 -2122 0 0 -22 c0 -13 -5 -88 -11 -167 -38 -530 -209 -968
-536 -1366 -272 -332 -579 -531 -1038 -670 -447 -135 -1058 -165 -1530 -74
-574 111 -1131 453 -1518 934 -396 491 -710 1205 -876 1990 -116 547 -173
1090 -191 1840 -24 965 52 1882 215 2602 150 657 384 1230 683 1668 239 351
540 639 874 837 323 191 628 292 1038 344 183 23 549 15 726 -15 719 -122
1195 -477 1648 -1226 191 -316 407 -831 496 -1182 9 -36 19 -53 29 -53 30 0
4246 732 4252 739 14 14 -84 549 -146 801 -283 1145 -798 2074 -1595 2871
-622 623 -1290 1027 -2185 1324 -726 241 -1568 376 -2515 405 -297 9 -377 9
-645 3z"/>
</g>
</svg>
